<svg xmlns="http://www.w3.org/2000/svg" width="512" height="512" viewBox="0 0 512 512">
<defs>
<radialGradient id="bg" cx="0.36" cy="0.3" r="1.05">
<stop offset="0" stop-color="#2e3442"/>
<stop offset="0.55" stop-color="#171a21"/>
<stop offset="1" stop-color="#101014"/>
</radialGradient>
<radialGradient id="vig" cx="0.5" cy="0.5" r="0.72">
<stop offset="0.62" stop-color="#000000" stop-opacity="0"/>
<stop offset="1" stop-color="#000000" stop-opacity="0.5"/>
</radialGradient>
<filter id="soft" x="-40%" y="-40%" width="180%" height="180%">
<feGaussianBlur stdDeviation="10"/>
</filter>
<filter id="soft4" x="-40%" y="-40%" width="180%" height="180%">
<feGaussianBlur stdDeviation="4"/>
</filter>
<linearGradient id="bezelOuter" x1="0" y1="0" x2="0.8" y2="1">
<stop offset="0" stop-color="#cbd3df"/>
<stop offset="0.5" stop-color="#77808f"/>
<stop offset="1" stop-color="#3a3f4a"/>
</linearGradient>
<linearGradient id="bezelInner" x1="0" y1="0" x2="0.8" y2="1">
<stop offset="0" stop-color="#4c515d"/>
<stop offset="1" stop-color="#23252d"/>
</linearGradient>
<linearGradient id="prong" x1="0" y1="0" x2="1" y2="1">
<stop offset="0" stop-color="#b8c0cd"/>
<stop offset="1" stop-color="#565c68"/>
</linearGradient>
<radialGradient id="glassDome" cx="0.36" cy="0.3" r="1">
<stop offset="0" stop-color="#dfeaf6"/>
<stop offset="0.55" stop-color="#93a7bd"/>
<stop offset="1" stop-color="#485468"/>
</radialGradient>
</defs>
<rect width="512" height="512" fill="url(#bg)"/>
<ellipse cx="262" cy="408" rx="150" ry="34" fill="#000000" opacity="0.55" filter="url(#soft)"/>
<g>
  <circle cx="256" cy="268" r="150" fill="url(#bezelOuter)" stroke="#0e0f13" stroke-width="5"/>
  <circle cx="256" cy="268" r="118" fill="url(#bezelInner)"/>
  <g fill="url(#prong)" stroke="#101116" stroke-width="3">
    <path d="M256 106 l20 34 -40 0 z"/>
    <path d="M256 430 l20 -34 -40 0 z"/>
    <path d="M94 268 l34 -20 0 40 z"/>
    <path d="M418 268 l-34 -20 0 40 z"/>
  </g>
  <circle cx="256" cy="268" r="96" fill="url(#glassDome)" stroke="#c9d6e8" stroke-width="3"/>
  <g stroke="#e7f0fb" stroke-width="2.4" opacity="0.65" fill="none">
    <path d="M256 172 L306 240 L288 348 L224 348 L206 240 Z"/>
    <path d="M206 240 L160 268 M306 240 L352 268 M224 348 L196 330 M288 348 L316 330 M256 172 L256 208"/>
  </g>
  <path d="M306 240 L352 268 L316 330 L288 348 Z" fill="#9fd8c9" opacity="0.28"/>
  <path d="M206 240 L160 268 L196 330 L224 348 Z" fill="#b9a7e0" opacity="0.28"/>
  <path d="M256 172 L306 240 L256 268 L206 240 Z" fill="#f2c8d6" opacity="0.24"/>
  <path d="M186 210 a96 96 0 0 1 60 -34" stroke="#ffffff" stroke-width="9" fill="none" opacity="0.8" stroke-linecap="round"/>
  <circle cx="216" cy="196" r="7" fill="#ffffff" opacity="0.9" filter="url(#soft4)"/>
</g>
<rect width="512" height="512" fill="url(#vig)"/>
</svg>